<?xml version="1.0" encoding="iso-8859-1"?>
<!-- Generator: Adobe Illustrator 19.0.0, SVG Export Plug-In . SVG Version: 6.00 Build 0)  -->
<svg version="1.1" id="Layer_1" xmlns="http://www.w3.org/2000/svg" xmlns:xlink="http://www.w3.org/1999/xlink" x="0px" y="0px"
	 viewBox="0 0 512 512" style="enable-background:new 0 0 512 512;" xml:space="preserve">
<g transform="translate(1 1)">
	<g>
		<path style="fill:#E2E3E5;" d="M183.558,511c-7.144,0-11.907-4.763-11.907-11.907V22.814c0-7.144,4.763-11.907,11.907-11.907
			c7.144,0,11.907,4.763,11.907,11.907v476.279C195.465,506.237,190.702,511,183.558,511z"/>
		<path style="fill:#E2E3E5;" d="M338.349,511c-7.144,0-11.907-4.763-11.907-11.907V22.814c0-7.144,4.763-11.907,11.907-11.907
			c7.144,0,11.907,4.763,11.907,11.907v476.279C350.256,506.237,345.493,511,338.349,511z"/>
	</g>
	<g>
		<path style="fill:#B6B6B6;" d="M171.651,499.093c-7.144,0-11.907-4.763-11.907-11.907V10.907C159.744,3.763,164.507-1,171.651-1
			c7.144,0,11.907,4.763,11.907,11.907v476.279C183.558,494.33,178.795,499.093,171.651,499.093z"/>
		<path style="fill:#B6B6B6;" d="M326.442,499.093c-7.144,0-11.907-4.763-11.907-11.907V10.907C314.535,3.763,319.298-1,326.442-1
			s11.907,4.763,11.907,11.907v476.279C338.349,494.33,333.586,499.093,326.442,499.093z"/>
	</g>
</g>
<g>
</g>
<g>
</g>
<g>
</g>
<g>
</g>
<g>
</g>
<g>
</g>
<g>
</g>
<g>
</g>
<g>
</g>
<g>
</g>
<g>
</g>
<g>
</g>
<g>
</g>
<g>
</g>
<g>
</g>
</svg>
