<?xml version="1.0" encoding="iso-8859-1"?>
<!-- Generator: Adobe Illustrator 19.0.0, SVG Export Plug-In . SVG Version: 6.00 Build 0)  -->
<svg version="1.1" id="Layer_1" xmlns="http://www.w3.org/2000/svg" xmlns:xlink="http://www.w3.org/1999/xlink" x="0px" y="0px"
	 viewBox="0 0 512 512" style="enable-background:new 0 0 512 512;" xml:space="preserve">
<g transform="translate(1 1)">
	<polygon style="fill:#E2E3E5;" points="241.526,484.053 511,484.053 511,25.947 241.526,25.947 	"/>
	<polygon style="fill:#CCCCCC;" points="201.105,484.053 470.579,484.053 470.579,25.947 201.105,25.947 	"/>
	<polygon style="fill:#EEEEEE;" points="12.474,484.053 281.947,484.053 281.947,25.947 12.474,25.947 	"/>
	<polygon style="fill:#E2E3E5;" points="52.895,484.053 430.158,484.053 430.158,25.947 52.895,25.947 	"/>
	<path style="fill:#B6B6B6;" d="M470.579,497.526H12.474C4.389,497.526-1,492.137-1,484.053V25.947
		c0-8.084,5.389-13.474,13.474-13.474h458.105c8.084,0,13.474,5.389,13.474,13.474v458.105
		C484.053,492.137,478.663,497.526,470.579,497.526z M25.947,470.579h431.158V39.421H25.947V470.579z"/>
</g>
<g>
</g>
<g>
</g>
<g>
</g>
<g>
</g>
<g>
</g>
<g>
</g>
<g>
</g>
<g>
</g>
<g>
</g>
<g>
</g>
<g>
</g>
<g>
</g>
<g>
</g>
<g>
</g>
<g>
</g>
</svg>
