<svg width="29" height="40" fill="white" viewBox="0 -80 469 469">
<g>
	<g>
		<path d="M437.333,0.932h-128h-74.667C228.779,0.932,224,5.7,224,11.598H53.333c-23.531,0-42.667,19.136-42.667,42.667
			c0,10.432,3.765,20.021,10.016,27.435C8.299,89.177,0,102.777,0,118.265c0,15.488,8.299,29.088,20.683,36.565
			c-6.251,7.413-10.016,16.992-10.016,27.435c0,23.531,19.136,42.667,42.667,42.667H128v82.048c0,22.4,18.219,40.619,40.619,40.619
			c18.667,0,34.88-12.661,39.403-30.773c0.128-0.491,0.213-1.003,0.267-1.515l4.832-47.712l14.613-34.709
			c1.877,1.632,4.256,2.709,6.933,2.709h74.667H432c20.587,0,37.333-16.747,37.333-37.333V32.932
			C469.333,15.289,454.976,0.932,437.333,0.932z M224,203.598c-4.288,0-8.171,2.571-9.835,6.528l-21.333,50.667
			c-0.405,0.971-0.672,2.005-0.779,3.061l-4.907,48.459c-2.368,8.245-9.899,13.952-18.528,13.952
			c-10.635,0-19.285-8.64-19.285-19.285v-92.715c0-5.899-4.779-10.667-10.667-10.667H53.333C41.568,203.598,32,194.03,32,182.265
			c0-11.765,9.568-21.333,21.333-21.333c5.888,0,10.667-4.768,10.667-10.667c0-5.899-4.779-10.667-10.667-10.667H42.667
			c-11.765,0-21.333-9.579-21.333-21.333c0-11.755,9.568-21.333,21.333-21.333h10.667C59.221,96.932,64,92.164,64,86.265
			s-4.779-10.667-10.667-10.667C41.568,75.598,32,66.02,32,54.265c0-11.755,9.568-21.333,21.333-21.333H224V203.598z
			 M298.667,214.265h-53.333v-192h53.333V214.265z M448,198.265c0,8.821-7.179,16-16,16H320v-192h117.333
			c5.888,0,10.667,4.779,10.667,10.667V198.265z"/>
	</g>
</g>
<g>
	<g>
		<circle cx="357.333" cy="59.598" r="16"/>
	</g>
</g>
<g>
	<g>
		<path d="M254.709,330.297c-5.76-0.811-11.136,2.581-12.555,7.456c-1.429,4.853,1.312,10.592,6.763,13.024
			c5.291,2.379,11.84-0.693,13.739-7.125C264.523,337.188,260.608,331.14,254.709,330.297z"/>
	</g>
</g>
<g>
	<g>
		<path d="M235.861,372.516c-4.565-3.531-11.125-3.413-14.635,0.256c-3.68,3.509-4.043,9.931-0.619,14.581
			c3.573,4.832,10.677,5.312,15.531,0.672C240.8,383.214,240.608,376.185,235.861,372.516z"/>
	</g>
</g>
<g>
	<g>
		<path d="M198.571,399.886c-2.325-5.6-7.872-8.075-12.843-7.029c-4.864,1.483-8.448,6.464-7.733,12.416
			c0.672,5.739,6.699,10.101,13.163,8.213C197.717,411.993,200.8,405.145,198.571,399.886z"/>
	</g>
</g>
<g>
	<g>
		<path d="M144.928,392.868c-4.971-1.056-10.517,1.429-12.853,7.029c-2.219,5.259,0.864,12.107,7.424,13.6
			c6.464,1.888,12.491-2.475,13.163-8.213C153.376,399.332,149.792,394.35,144.928,392.868z"/>
	</g>
</g>
<g>
	<g>
		<path d="M109.44,372.772c-3.499-3.659-10.069-3.787-14.635-0.256c-4.747,3.669-4.939,10.699-0.277,15.509
			c4.853,4.64,11.957,4.149,15.531-0.672C113.483,382.702,113.12,376.281,109.44,372.772z"/>
	</g>
</g>
<g>
	<g>
		<path d="M88.523,337.753c-1.429-4.875-6.805-8.267-12.555-7.456c-5.909,0.843-9.813,6.891-7.947,13.355
			c1.899,6.432,8.437,9.504,13.739,7.125C87.221,348.345,89.952,342.606,88.523,337.753z"/>
	</g>
</g>
<g>
	<g>
		<path d="M308.683,328.58c-5.728-0.427-11.104,3.52-11.957,8.832c-0.597,5.355,2.645,10.699,8.416,12.171
			c5.643,1.451,11.872-2.336,12.64-8.704C318.784,334.542,314.699,329.038,308.683,328.58z"/>
	</g>
</g>
<g>
	<g>
		<path d="M297.824,372.046c-5.451-2.24-11.787-0.139-14.101,4.704c-2.336,4.843-0.907,10.944,4.181,14.155
			c4.864,3.093,11.957,1.408,14.773-4.341C305.461,380.793,303.275,374.286,297.824,372.046z"/>
	</g>
</g>
<g>
	<g>
		<path d="M273.931,409.956c-4.501-3.819-11.04-3.637-14.72,0.288c-3.989,3.605-4.149,10.219-0.384,14.741
			c3.765,4.523,10.677,4.715,15.403,0.395C278.635,420.74,278.411,413.742,273.931,409.956z"/>
	</g>
</g>
<g>
	<g>
		<path d="M239.659,438.777c-3.211-5.163-9.195-6.464-14.133-4.32c-4.853,2.293-6.955,8.736-4.811,14.08
			c2.251,5.6,8.683,7.712,14.464,4.949C241.045,450.873,242.688,443.62,239.659,438.777z"/>
	</g>
</g>
<g>
	<g>
		<path d="M198.176,455.694c-1.397-5.685-6.752-9.173-12.107-8.544c-5.301,0.96-9.312,6.101-8.928,11.851
			c0.416,5.995,5.899,10.336,12.224,9.227C195.733,467.438,199.605,461.454,198.176,455.694z"/>
	</g>
</g>
<g>
	<g>
		<path d="M144.587,447.15c-5.355-0.619-10.709,2.869-12.117,8.544c-1.429,5.76,2.443,11.744,8.821,12.533
			c6.325,1.109,11.808-3.221,12.224-9.227C153.909,453.252,149.888,448.11,144.587,447.15z"/>
	</g>
</g>
<g>
	<g>
		<path d="M105.141,434.457c-4.949-2.133-10.933-0.832-14.133,4.32c-3.029,4.843-1.387,12.096,4.48,14.709
			c5.781,2.763,12.213,0.651,14.464-4.949C112.096,443.193,110.005,436.75,105.141,434.457z"/>
	</g>
</g>
<g>
	<g>
		<path d="M71.445,410.244c-3.669-3.925-10.208-4.107-14.72-0.288c-4.48,3.787-4.704,10.784-0.299,15.424
			c4.725,4.32,11.637,4.128,15.403-0.395C75.595,420.462,75.445,413.838,71.445,410.244z"/>
	</g>
</g>
<g>
	<g>
		<path d="M46.944,376.75c-2.325-4.843-8.651-6.933-14.101-4.704c-5.451,2.24-7.637,8.747-4.843,14.517
			c2.816,5.76,9.899,7.445,14.763,4.341C47.851,387.694,49.269,381.593,46.944,376.75z"/>
	</g>
</g>
<g>
	<g>
		<path d="M33.952,337.401c-0.853-5.312-6.229-9.259-11.957-8.832c-6.027,0.459-10.101,5.963-9.088,12.299
			c0.768,6.379,6.987,10.165,12.64,8.704C31.296,348.1,34.539,342.766,33.952,337.401z"/>
	</g>
</g>
<g>
</g>
<g>
</g>
<g>
</g>
<g>
</g>
<g>
</g>
<g>
</g>
<g>
</g>
<g>
</g>
<g>
</g>
<g>
</g>
<g>
</g>
<g>
</g>
<g>
</g>
<g>
</g>
<g>
</g>
</svg>
